# xmcd
#
# Track frame offsets:
#  151
#  37256
#  57749
#  83649
#  98935
#  103725
#  143264
#  161637
#  192392
#  213407
#  238772
#  258813
#  297096
#
# Disc length: 4244 seconds
#
# Revision: 0
# Processed by: cddbd v1.4PL0 Copyright (c) Steve Scherf et al.
# Submitted via: AltoMP3_Maker 3.0
#
DISCID=bb10920d
DTITLE=Hot Street - Live At Yancy's San Luis Obispo 1982 disc 2
DYEAR=1900
DGENRE=
TTITLE0=Tell It Like It Is 
TTITLE1=Music Band
TTITLE2=Brown Sugar
TTITLE3=Workin' For The Weekend
TTITLE4=Workin' For The Weekend (reprise)
TTITLE5=I Heard It Through The Grapevine
TTITLE6=Time Pays You Back
TTITLE7=Warfare
TTITLE8=Physical
TTITLE9=Draggin' In My Seat
TTITLE10=Can't Give Up On Love
TTITLE11=With A Little Help From My Friends
TTITLE12=Conte Chili
EXTD=
EXTT0=
EXTT1=
EXTT2=
EXTT3=
EXTT4=
EXTT5=
EXTT6=
EXTT7=
EXTT8=
EXTT9=
EXTT10=
EXTT11=
EXTT12=
PLAYORDER=
